<?xml version="1.0" encoding="UTF-8"?>
<svg version="1.1" xmlns="http://www.w3.org/2000/svg" width="500" height="500">
<path d="M0 0 C165 0 330 0 500 0 C500 165 500 330 500 500 C335 500 170 500 0 500 C0 335 0 170 0 0 Z " fill="#FEFEFE" transform="translate(0,0)"/>
<path d="M0 0 C0 3.2252661 -0.4824596 4.03107346 -2 6.75 C-5.71188494 14.8896334 -5.1722188 24.50684964 -2.375 32.875 C3.07066515 45.7344128 11.40505332 53.23924314 24 59 C34.80155918 62.93806845 45.7061737 61.7235552 56.125 57.38671875 C58.86131663 56.06689211 61.4272259 54.61271318 64 53 C60.5534661 65.51635996 54.10335419 75.38610832 43 82.25 C31.1837718 88.96376602 18.87877768 90.80603204 5.453125 88.3515625 C-6.14744072 85.1045142 -16.0587351 78.9701805 -23 69 C-24.92676745 65.4217176 -26.52135439 61.78258179 -28 58 C-28.36609375 57.24460938 -28.7321875 56.48921875 -29.109375 55.7109375 C-32.03932702 46.79257476 -30.9503973 34.87092417 -27.26953125 26.390625 C-25.12950397 22.36078901 -22.72192887 18.65804198 -20 15 C-19.319375 13.989375 -18.63875 12.97875 -17.9375 11.9375 C-13.52059885 6.73082182 -6.06059853 3.03029927 0 0 Z " fill="#040404" transform="translate(236,162)"/>
<path d="M0 0 C0.84755859 0.00322266 1.69511719 0.00644531 2.56835938 0.00976562 C3.44943359 0.01814453 4.33050781 0.02652344 5.23828125 0.03515625 C6.57729492 0.04192383 6.57729492 0.04192383 7.94335938 0.04882812 C10.14590112 0.06060642 12.34830724 0.07705461 14.55078125 0.09765625 C14.55078125 1.08765625 14.55078125 2.07765625 14.55078125 3.09765625 C11.58078125 3.09765625 8.61078125 3.09765625 5.55078125 3.09765625 C5.31617188 3.75121094 5.0815625 4.40476562 4.83984375 5.078125 C3.15322666 9.02889777 1.0565165 12.68469883 -1.07421875 16.41015625 C-1.49445313 17.15072266 -1.9146875 17.89128906 -2.34765625 18.65429688 C-3.3787037 20.47034636 -4.41357921 22.28422158 -5.44921875 24.09765625 C-2.80921875 24.09765625 -0.16921875 24.09765625 2.55078125 24.09765625 C3.21078125 22.77765625 3.87078125 21.45765625 4.55078125 20.09765625 C7.42578125 19.97265625 7.42578125 19.97265625 10.55078125 20.09765625 C12.55078125 22.09765625 12.55078125 22.09765625 12.67578125 24.72265625 C12.63453125 25.50640625 12.59328125 26.29015625 12.55078125 27.09765625 C15.58764838 25.40058344 17.89172977 23.77153158 20.42578125 21.34765625 C23.55078125 19.09765625 23.55078125 19.09765625 27.42578125 19.28515625 C28.45703125 19.55328125 29.48828125 19.82140625 30.55078125 20.09765625 C30.92203125 18.79828125 30.92203125 18.79828125 31.30078125 17.47265625 C32.63571009 13.86834838 34.17773537 11.11789646 36.55078125 8.09765625 C37.54078125 8.09765625 38.53078125 8.09765625 39.55078125 8.09765625 C37.57848382 13.37432635 34.95990157 18.30286866 32.38476562 23.30273438 C32.03607422 23.98916016 31.68738281 24.67558594 31.328125 25.3828125 C31.01093506 26.000354 30.69374512 26.61789551 30.36694336 27.25415039 C29.51453936 29.17951762 29.00246171 31.04453747 28.55078125 33.09765625 C33.10236893 30.83377756 35.08949363 28.19842558 37.73828125 23.91015625 C38.95982345 21.94120773 40.21905731 19.99381947 41.55078125 18.09765625 C42.21078125 18.09765625 42.87078125 18.09765625 43.55078125 18.09765625 C42.92399954 21.759381 41.90626279 24.97955575 40.48828125 28.41015625 C40.12605469 29.29316406 39.76382813 30.17617188 39.390625 31.0859375 C38.97490234 32.08173828 38.97490234 32.08173828 38.55078125 33.09765625 C42.88280444 30.9935307 44.9219395 28.48114344 47.4375 24.5234375 C47.80488281 24.05292969 48.17226563 23.58242188 48.55078125 23.09765625 C49.21078125 23.09765625 49.87078125 23.09765625 50.55078125 23.09765625 C49.76903033 28.9049488 46.87660405 32.29483252 42.55078125 36.09765625 C38.65996231 37.3945959 36.39717793 37.05925542 32.55078125 36.09765625 C30.54131903 36.36816078 28.53723901 36.69133534 26.55078125 37.09765625 C26.05578125 35.11765625 26.05578125 35.11765625 25.55078125 33.09765625 C24.64328125 33.75765625 23.73578125 34.41765625 22.80078125 35.09765625 C19.55078125 37.09765625 19.55078125 37.09765625 15.55078125 37.09765625 C15.05578125 34.12765625 15.05578125 34.12765625 14.55078125 31.09765625 C11.05340989 32.07366686 8.74043024 32.93961542 5.92578125 35.28515625 C3.55078125 37.09765625 3.55078125 37.09765625 1.30078125 36.91015625 C-0.44921875 36.09765625 -0.44921875 36.09765625 -1.44921875 35.09765625 C-1.49002658 33.09807261 -1.49176231 31.09720371 -1.44921875 29.09765625 C-4.35960526 28.49132573 -5.66875273 28.22679331 -8.44921875 29.09765625 C-10.74652904 31.41230473 -12.57971635 33.85545782 -14.45703125 36.51953125 C-16.98241205 39.78767111 -19.74487776 42.24548576 -23.44921875 44.09765625 C-25.5078125 44.30078125 -25.5078125 44.30078125 -27.88671875 44.34765625 C-28.66917969 44.3734375 -29.45164062 44.39921875 -30.2578125 44.42578125 C-32.44921875 44.09765625 -32.44921875 44.09765625 -34.171875 42.85546875 C-36.52415492 39.6183863 -36.80051391 36.01700815 -36.44921875 32.09765625 C-33.90880906 28.68624896 -31.33124991 26.73462463 -27.44921875 25.09765625 C-25.34277344 24.87060547 -25.34277344 24.87060547 -23.12109375 24.90234375 C-22.321875 24.90878906 -21.52265625 24.91523438 -20.69921875 24.921875 C-19.87421875 24.93863281 -19.04921875 24.95539063 -18.19921875 24.97265625 C-17.35875 24.98167969 -16.51828125 24.99070312 -15.65234375 25 C-13.58451271 25.02349808 -11.5168288 25.05936717 -9.44921875 25.09765625 C-9.21460938 24.44410156 -8.98 23.79054688 -8.73828125 23.1171875 C-7.05166416 19.16641473 -4.954954 15.51061367 -2.82421875 11.78515625 C-2.40398437 11.04458984 -1.98375 10.30402344 -1.55078125 9.54101562 C-0.5197338 7.72496614 0.51514171 5.91109092 1.55078125 4.09765625 C-1.74921875 4.09765625 -5.04921875 4.09765625 -8.44921875 4.09765625 C-8.11921875 3.10765625 -7.78921875 2.11765625 -7.44921875 1.09765625 C-4.6251011 0.1562837 -2.92003843 -0.01959757 0 0 Z " fill="#202020" transform="translate(298.44921875,267.90234375)"/>
<path d="M0 0 C0 4 0 4 -2.25 6.375 C-3.1575 7.24125 -4.065 8.1075 -5 9 C-6.44116215 10.94764086 -7.71006457 12.94565839 -9 15 C-5.535 14.505 -5.535 14.505 -2 14 C-2.203125 15.9296875 -2.203125 15.9296875 -3 18 C-5.109375 18.6953125 -5.109375 18.6953125 -7.75 19.125 C-11.01449963 19.98087884 -12.59356765 20.51210214 -14.7734375 23.12890625 C-17.61495217 28.50807419 -18.8324614 32.96465487 -18 39 C-17.06756129 41.57951684 -17.06756129 41.57951684 -15 43 C-11.4516955 43.3774792 -8.40249424 43.04692131 -5 42 C-5.375 43.9375 -5.375 43.9375 -6 46 C-9.28639881 47.6431994 -12.47525053 47.77675035 -16 47 C-19.41927093 44.70851381 -21.50145473 41.91168797 -22.54296875 37.91796875 C-22.98634285 31.26735725 -20.01481217 25.76044468 -17 20 C-20.84555394 20.24276094 -22.54923314 20.54541955 -25.30859375 23.328125 C-26.01113281 24.29234375 -26.71367187 25.2565625 -27.4375 26.25 C-35.35909559 36.45386434 -35.35909559 36.45386434 -42.75 37.5625 C-46 37 -46 37 -47.9375 35.375 C-49.37270595 32.16689259 -49.61667866 30.49451242 -49 27 C-46.43779004 22.72965006 -43.02748233 19.2440014 -38.27734375 17.48828125 C-32.94019898 16.34395347 -27.44006742 16.21880992 -22 16 C-22 15.34 -22 14.68 -22 14 C-16.84214568 8.5470096 -7.82980503 0 0 0 Z " fill="#101010" transform="translate(203,268)"/>
<path d="M0 0 C0.66 0 1.32 0 2 0 C2 1.32 2 2.64 2 4 C5.04386724 4.08226668 7.07175348 3.97608217 10 3 C9.6875 4.875 9.6875 4.875 9 7 C6 9 6 9 2.25 8.9375 C-1.00293929 9.24472204 -1.85820985 9.84088586 -4.078125 12.33203125 C-8.30304899 18.63736247 -8.30304899 18.63736247 -9 26 C-3.07862086 23.46226608 -0.7573473 19.63457926 2 14 C3.4375 12.0625 3.4375 12.0625 5 11 C7.09765625 11.43359375 7.09765625 11.43359375 9 12 C8.79503906 12.67546875 8.59007812 13.3509375 8.37890625 14.046875 C8.10949219 14.93890625 7.84007812 15.8309375 7.5625 16.75 C7.29566406 17.63171875 7.02882812 18.5134375 6.75390625 19.421875 C6.11531506 21.60565835 5.53224167 23.78835498 5 26 C8.92560879 24.52894746 9.97565416 22.61648518 11.8125 18.9375 C14.52224199 14.15925267 14.52224199 14.15925267 18.75 12.75 C22 13 22 13 24 15 C24.625 17.625 24.625 17.625 25 20 C25.763125 19.505 26.52625 19.01 27.3125 18.5 C30 17 30 17 33 17 C31.5347006 20.86306207 29.62997185 22.1428051 26 24 C25.175 24.309375 24.35 24.61875 23.5 24.9375 C20.83773178 25.90377473 20.83773178 25.90377473 18.625 28.1875 C16 30 16 30 12.5625 29.6875 C11.386875 29.460625 10.21125 29.23375 9 29 C5.69285416 29.36887653 5.69285416 29.36887653 3 30 C2.34 28.02 1.68 26.04 1 24 C0.56429687 24.44472656 0.12859375 24.88945312 -0.3203125 25.34765625 C-2.14918199 27.08547812 -3.8815854 28.62577895 -6 30 C-9.4375 29.875 -9.4375 29.875 -12 29 C-12.33 27.68 -12.66 26.36 -13 25 C-13.56847656 25.37253906 -14.13695312 25.74507813 -14.72265625 26.12890625 C-21.81460578 30.4740573 -21.81460578 30.4740573 -26.0625 29.8125 C-27.031875 29.544375 -28.00125 29.27625 -29 29 C-29 28.01 -29 27.02 -29 26 C-27.35 25.67 -25.7 25.34 -24 25 C-24.680625 24.278125 -25.36125 23.55625 -26.0625 22.8125 C-28 20 -28 20 -28 17.375 C-26.7609215 14.43218855 -25.84037895 13.45857297 -23 12 C-19.75 11.8125 -19.75 11.8125 -17 12 C-16.67 13.65 -16.34 15.3 -16 17 C-16.99 17 -17.98 17 -19 17 C-19 16.34 -19 15.68 -19 15 C-20.32 15.33 -21.64 15.66 -23 16 C-22.48967606 19.77639718 -21.79233071 21.44722581 -19 24 C-12.67650911 19.22511913 -8.98513835 13.80743997 -5 7 C-6.98 7.33 -8.96 7.66 -11 8 C-10.67 6.68 -10.34 5.36 -10 4 C-6.97265625 3.75585938 -6.97265625 3.75585938 -3.9453125 3.51171875 C-1.60480784 3.12606964 -1.60480784 3.12606964 0 0 Z " fill="#181818" transform="translate(221,275)"/>
<path d="M0 0 C0.99 0 1.98 0 3 0 C1.02770257 5.2766701 -1.59087968 10.20521241 -4.16601562 15.20507812 C-4.51470703 15.89150391 -4.86339844 16.57792969 -5.22265625 17.28515625 C-5.53984619 17.90269775 -5.85703613 18.52023926 -6.18383789 19.15649414 C-7.03624189 21.08186137 -7.54831954 22.94688122 -8 25 C-3.44841232 22.73612131 -1.46128762 20.10076933 1.1875 15.8125 C2.4090422 13.84355148 3.66827606 11.89616322 5 10 C5.66 10 6.32 10 7 10 C6.37321829 13.66172475 5.35548154 16.8818995 3.9375 20.3125 C3.57527344 21.19550781 3.21304687 22.07851563 2.83984375 22.98828125 C2.56269531 23.65214844 2.28554688 24.31601562 2 25 C6.33202319 22.89587445 8.37115825 20.38348719 10.88671875 16.42578125 C11.25410156 15.95527344 11.62148438 15.48476563 12 15 C12.66 15 13.32 15 14 15 C13.21824908 20.80729255 10.3258228 24.19717627 6 28 C2.10918106 29.29693965 -0.15360332 28.96159917 -4 28 C-6.00946222 28.27050453 -8.01354224 28.59367909 -10 29 C-10.33 27.68 -10.66 26.36 -11 25 C-12.36125 25.99 -12.36125 25.99 -13.75 27 C-17 29 -17 29 -21 29 C-21.33 27.35 -21.66 25.7 -22 24 C-21.01 23.67 -20.02 23.34 -19 23 C-19 23.66 -19 24.32 -19 25 C-15.02743602 22.90336901 -12.56101511 20.69924405 -10 17 C-10 16.34 -10 15.68 -10 15 C-10.99 15 -11.98 15 -13 15 C-13 13.68 -13 12.36 -13 11 C-10.69 11.33 -8.38 11.66 -6 12 C-5.7525 11.13375 -5.505 10.2675 -5.25 9.375 C-3.91507116 5.77069213 -2.37304588 3.02024021 0 0 Z " fill="#151515" transform="translate(335,276)"/>
<path d="M0 0 C1.27230469 0.00902344 2.54460937 0.01804687 3.85546875 0.02734375 C5.31919922 0.04474609 5.31919922 0.04474609 6.8125 0.0625 C4.09388542 5.49972916 1.1541023 9.9177571 -4.1875 13.0625 C-7.84894898 13.61171735 -9.94110975 13.8264166 -13.125 11.875 C-14.60109492 9.35695572 -14.67839348 7.93773324 -14.1875 5.0625 C-10.05586621 -0.06642471 -6.30898432 -0.05788059 0 0 Z " fill="#F5F5F5" transform="translate(279.1875,295.9375)"/>
<path d="M0 0 C0.66 0 1.32 0 2 0 C2.33 1.258125 2.66 2.51625 3 3.8125 C3.97661861 6.50415617 4.50494872 7.70023522 6.98046875 9.19921875 C9.42652106 10.12477753 9.42652106 10.12477753 13 11 C13 11.33 13 11.66 13 12 C11.906875 12.268125 10.81375 12.53625 9.6875 12.8125 C5.62232814 14.02926603 5.62232814 14.02926603 3 17 C2.27802838 19.60611077 2.27802838 19.60611077 2 22 C1.34 22 0.68 22 0 22 C-0.9765625 19.36328125 -0.9765625 19.36328125 -1.953125 16.7265625 C-3.33261477 14.45143386 -4.52186658 13.92044955 -7 13 C-9.35564596 12.55188863 -9.35564596 12.55188863 -11.75 12.375 C-12.54921875 12.30023438 -13.3484375 12.22546875 -14.171875 12.1484375 C-14.77515625 12.09945312 -15.3784375 12.05046875 -16 12 C-16 11.67 -16 11.34 -16 11 C-9.07 9.515 -9.07 9.515 -2 8 C-1.34 5.36 -0.68 2.72 0 0 Z " fill="#131313" transform="translate(267,169)"/>
<path d="M0 0 C-3.56051313 5.83924153 -7.58468143 11.90452046 -14.3125 14.0625 C-17 14 -17 14 -19 12 C-18.9162616 8.14803345 -18.5021736 6.5021736 -15.75 3.75 C-10.23512881 0.24053651 -6.42704924 -0.21786608 0 0 Z " fill="#EDEDED" transform="translate(176,288)"/>
<path d="M0 0 C0.33 1.65 0.66 3.3 1 5 C0.01 5 -0.98 5 -2 5 C-2 4.34 -2 3.68 -2 3 C-3.32 3.33 -4.64 3.66 -6 4 C-5.50233954 7.68268739 -4.93714041 9.65028767 -2 12 C-1.34 12.33 -0.68 12.66 0 13 C-0.5 14.9375 -0.5 14.9375 -2 17 C-5.41944272 17.97077399 -8.76369066 18.61815467 -12 17 C-12 16.01 -12 15.02 -12 14 C-10.35 13.67 -8.7 13.34 -7 13 C-8.0209375 11.9171875 -8.0209375 11.9171875 -9.0625 10.8125 C-11 8 -11 8 -11 5.375 C-8.76047606 0.05613065 -5.42397903 -0.36981675 0 0 Z " fill="#1B1B1B" transform="translate(204,287)"/>
<path d="M0 0 C0.33 0 0.66 0 1 0 C1.309375 1.134375 1.61875 2.26875 1.9375 3.4375 C2.62924531 6.78775099 2.62924531 6.78775099 4 8 C8.23633069 8.81121226 10.03356955 8.64194581 13.6875 6.21484375 C16.18573554 4.20277052 18.61757478 2.14753823 21 0 C21.33 0.66 21.66 1.32 22 2 C20.92492371 3.29854721 19.83956264 4.58858361 18.75 5.875 C18.14671875 6.59429687 17.5434375 7.31359375 16.921875 8.0546875 C14.36145654 10.64633057 12.36329029 11.81807045 8.74609375 12.30078125 C7.98425781 12.30464844 7.22242188 12.30851562 6.4375 12.3125 C5.29087891 12.33763672 5.29087891 12.33763672 4.12109375 12.36328125 C1.4753034 11.91013484 0.6315715 11.09201499 -1 9 C-1.99130348 6.02608955 -2.2500817 4.6168682 -1.0625 1.6875 C-0.711875 1.130625 -0.36125 0.57375 0 0 Z " fill="#0C0C0C" transform="translate(264,300)"/>
<path d="M0 0 C0.84755859 0.00322266 1.69511719 0.00644531 2.56835938 0.00976562 C3.8899707 0.02233398 3.8899707 0.02233398 5.23828125 0.03515625 C6.57729492 0.04192383 6.57729492 0.04192383 7.94335938 0.04882812 C10.14590112 0.06060642 12.34830724 0.07705461 14.55078125 0.09765625 C14.55078125 1.08765625 14.55078125 2.07765625 14.55078125 3.09765625 C11.58078125 3.09765625 8.61078125 3.09765625 5.55078125 3.09765625 C4.89078125 4.74765625 4.23078125 6.39765625 3.55078125 8.09765625 C2.56078125 8.09765625 1.57078125 8.09765625 0.55078125 8.09765625 C0.88078125 6.77765625 1.21078125 5.45765625 1.55078125 4.09765625 C-1.74921875 4.09765625 -5.04921875 4.09765625 -8.44921875 4.09765625 C-8.11921875 3.10765625 -7.78921875 2.11765625 -7.44921875 1.09765625 C-4.6251011 0.1562837 -2.92003843 -0.01959757 0 0 Z " fill="#232323" transform="translate(298.44921875,267.90234375)"/>
<path d="M0 0 C0.03738281 0.60328125 0.07476562 1.2065625 0.11328125 1.828125 C0.40399207 5.3622565 0.68708437 8.32476102 2.1875 11.5625 C4.83199424 13.6598575 6.70944307 13.33577112 10 13 C12.26566343 12.56058477 12.26566343 12.56058477 14 12 C13.625 13.9375 13.625 13.9375 13 16 C9.71360119 17.6431994 6.52474947 17.77675035 3 17 C0.19214233 15.11826345 -1.51766472 13.03055214 -3 10 C-3.45750483 6.92401007 -3.37719444 4.08042125 -3 1 C-1 0 -1 0 0 0 Z " fill="#121212" transform="translate(184,298)"/>
<path d="M0 0 C2.9375 0.1875 2.9375 0.1875 3.9375 1.1875 C4.0703125 3 4.0703125 3 4.0625 5.1875 C4.06507813 5.909375 4.06765625 6.63125 4.0703125 7.375 C3.9375 9.1875 3.9375 9.1875 2.9375 10.1875 C0 10.375 0 10.375 -3.0625 10.1875 C-5.0625 8.1875 -5.0625 8.1875 -5.3125 5.1875 C-4.96470552 1.01396625 -4.18057901 0.25595382 0 0 Z " fill="#959595" transform="translate(315.0625,323.8125)"/>
<path d="M0 0 C2.9375 0.1875 2.9375 0.1875 3.9375 1.1875 C4.0703125 3 4.0703125 3 4.0625 5.1875 C4.06507813 5.909375 4.06765625 6.63125 4.0703125 7.375 C3.9375 9.1875 3.9375 9.1875 2.9375 10.1875 C0 10.375 0 10.375 -3.0625 10.1875 C-5.0625 8.1875 -5.0625 8.1875 -5.3125 5.1875 C-4.96470552 1.01396625 -4.18057901 0.25595382 0 0 Z " fill="#959595" transform="translate(183.0625,323.8125)"/>
<path d="M0 0 C2.9375 0.1875 2.9375 0.1875 3.9375 1.1875 C4.125 4.625 4.125 4.625 3.9375 8.1875 C1.9375 10.1875 1.9375 10.1875 -1.1875 10.3125 C-2.610625 10.250625 -2.610625 10.250625 -4.0625 10.1875 C-5.44375018 7.42499964 -5.25329306 5.24018901 -5.0625 2.1875 C-3.0625 0.1875 -3.0625 0.1875 0 0 Z " fill="#3D3D3D" transform="translate(236.0625,323.8125)"/>
<path d="M0 0 C4 2 4 2 6 5 C6.33 3.35 6.66 1.7 7 0 C7.66 0 8.32 0 9 0 C9 3.3 9 6.6 9 10 C5.60085025 8.86695008 4.94745549 7.87481525 3 5 C2.67 6.65 2.34 8.3 2 10 C1.34 10 0.68 10 0 10 C0 6.7 0 3.4 0 0 Z " fill="#484848" transform="translate(244,324)"/>
<path d="M0 0 C0 4 0 4 -2.3125 6.75 C-5 9 -5 9 -8 9 C-8 8.34 -8 7.68 -8 7 C-8.66 6.67 -9.32 6.34 -10 6 C-4.15384615 0 -4.15384615 0 0 0 Z " fill="#0F0F0F" transform="translate(203,268)"/>
<path d="M0 0 C0.99 0.33 1.98 0.66 3 1 C1.60865582 5.42700422 -0.47884142 7.99413292 -4 11 C-4.99 11 -5.98 11 -7 11 C-6.40716379 7.60807637 -5.23256811 5.7892243 -2.9375 3.25 C-2.38964844 2.63640625 -1.84179688 2.0228125 -1.27734375 1.390625 C-0.85582031 0.93171875 -0.43429687 0.4728125 0 0 Z " fill="#EAEAEA" transform="translate(323,290)"/>
<path d="M0 0 C1 3 1 3 -0.29296875 5.8828125 C-1.23076172 7.48769531 -1.23076172 7.48769531 -2.1875 9.125 C-2.79980469 10.20007813 -3.41210938 11.27515625 -4.04296875 12.3828125 C-6 15 -6 15 -8.23828125 15.8671875 C-8.81964844 15.91101563 -9.40101563 15.95484375 -10 16 C-8.63649571 12.35524815 -6.998536 9.08755513 -5 5.75 C-4.484375 4.87859375 -3.96875 4.0071875 -3.4375 3.109375 C-2 1 -2 1 0 0 Z " fill="#1A1A1A" transform="translate(300,275)"/>
<path d="M0 0 C0.66 0.33 1.32 0.66 2 1 C2.33 1.99 2.66 2.98 3 4 C4.65 4.33 6.3 4.66 8 5 C7.360625 5.391875 6.72125 5.78375 6.0625 6.1875 C3.56221181 8.38472296 3.35049575 9.75791433 3 13 C1 12 1 12 0 9 C-1.65 8.67 -3.3 8.34 -5 8 C-5 7.34 -5 6.68 -5 6 C-3.68 5.67 -2.36 5.34 -1 5 C-0.67 3.35 -0.34 1.7 0 0 Z " fill="#D3D3D3" transform="translate(221,195)"/>
<path d="M0 0 C0.33 0.66 0.66 1.32 1 2 C-6.11389522 10.81548975 -6.11389522 10.81548975 -11 12 C-9.65422692 7.71866696 -7.97986553 5.81390203 -4.375 3.1875 C-3.55773437 2.58292969 -2.74046875 1.97835938 -1.8984375 1.35546875 C-0.95871094 0.68451172 -0.95871094 0.68451172 0 0 Z " fill="#121212" transform="translate(285,300)"/>
<path d="M0 0 C2.31 0 4.62 0 7 0 C7 0.33 7 0.66 7 1 C5.35 1 3.7 1 2 1 C2 1.99 2 2.98 2 4 C3.32 4 4.64 4 6 4 C6 4.66 6 5.32 6 6 C4.68 6 3.36 6 2 6 C2 6.99 2 7.98 2 9 C3.65 9 5.3 9 7 9 C7 9.33 7 9.66 7 10 C4.69 10 2.38 10 0 10 C0 6.7 0 3.4 0 0 Z " fill="#393939" transform="translate(271,324)"/>
<path d="M0 0 C1.65 0 3.3 0 5 0 C5 2.31 5 4.62 5 7 C3.0625 7.5625 3.0625 7.5625 1 8 C0 7 0 7 -0.0625 3.4375 C-0.041875 2.303125 -0.02125 1.16875 0 0 Z " fill="#F5F5F5" transform="translate(233,325)"/>
<path d="M0 0 C0.66 0 1.32 0 2 0 C3.38938077 1.96147874 4.7260411 3.96166576 6 6 C6.33 4.02 6.66 2.04 7 0 C7.33 0 7.66 0 8 0 C8 3.3 8 6.6 8 10 C4.26360784 8.75453595 3.81243487 7.36595047 2 4 C1.67 5.98 1.34 7.96 1 10 C0.67 10 0.34 10 0 10 C0 6.7 0 3.4 0 0 Z " fill="#1C1C1C" transform="translate(258,324)"/>
<path d="M0 0 C3.73639216 1.24546405 4.18756513 2.63404953 6 6 C6.33 4.02 6.66 2.04 7 0 C7.33 0 7.66 0 8 0 C8 3.3 8 6.6 8 10 C7.34 10 6.68 10 6 10 C4.61061923 8.03852126 3.2739589 6.03833424 2 4 C1.67 5.98 1.34 7.96 1 10 C0.67 10 0.34 10 0 10 C0 6.7 0 3.4 0 0 Z " fill="#181818" transform="translate(324,324)"/>
<path d="M0 0 C0.33 1.65 0.66 3.3 1 5 C0.01 5 -0.98 5 -2 5 C-2 4.34 -2 3.68 -2 3 C-4.64 3.66 -7.28 4.32 -10 5 C-7.62417533 -0.26075462 -5.61350876 -0.1220328 0 0 Z " fill="#111111" transform="translate(204,287)"/>
<path d="M0 0 C0 4.38968456 -2.12805101 5.76905739 -5 9 C-6.32 8.67 -7.64 8.34 -9 8 C-6.03 5.36 -3.06 2.72 0 0 Z " fill="#CECECE" transform="translate(193,276)"/>
<path d="M0 0 C0.66 0.33 1.32 0.66 2 1 C0.625 3.5 0.625 3.5 -1 6 C-1.66 6 -2.32 6 -3 6 C-3.66 6.99 -4.32 7.98 -5 9 C-4.50769231 3.46153846 -4.50769231 3.46153846 -1.9375 1.125 C-1.298125 0.75375 -0.65875 0.3825 0 0 Z " fill="#282828" transform="translate(267,295)"/>
<path d="M0 0 C0.66 0 1.32 0 2 0 C2 3.3 2 6.6 2 10 C1.01 9.67 0.02 9.34 -1 9 C-0.67 6.03 -0.34 3.06 0 0 Z " fill="#4F4F4F" transform="translate(251,324)"/>
<path d="M0 0 C0.66 0.33 1.32 0.66 2 1 C1.34 1.66 0.68 2.32 0 3 C0 3.99 0 4.98 0 6 C-0.99 6.66 -1.98 7.32 -3 8 C-3.99 7.67 -4.98 7.34 -6 7 C-4.02 4.69 -2.04 2.38 0 0 Z " fill="#1B1B1B" transform="translate(194,271)"/>
<path d="M0 0 C0.99 0 1.98 0 3 0 C2.67 1.65 2.34 3.3 2 5 C1.01 4.67 0.02 4.34 -1 4 C-0.67 2.68 -0.34 1.36 0 0 Z " fill="#DFDFDF" transform="translate(239,291)"/>
<path d="M0 0 C0.33 0.99 0.66 1.98 1 3 C-1.05233685 5.2477975 -2.00667261 6.0022242 -5 7 C-3.75023244 3.34683329 -3.32901247 2.21934164 0 0 Z " fill="#141414" transform="translate(295,284)"/>
</svg>
